<?xml version="1.0" encoding="UTF-8" standalone="no"?>
<!-- Created with Inkscape (http://www.inkscape.org/) -->

<svg
   width="121.62783mm"
   height="20.232254mm"
   viewBox="0 0 121.62783 20.232254"
   version="1.1"
   id="svg5"
   xml:space="preserve"
   inkscape:version="1.2.2 (b0a8486541, 2022-12-01)"
   sodipodi:docname="rysunek.svg"
   xmlns:inkscape="http://www.inkscape.org/namespaces/inkscape"
   xmlns:sodipodi="http://sodipodi.sourceforge.net/DTD/sodipodi-0.dtd"
   xmlns="http://www.w3.org/2000/svg"
   xmlns:svg="http://www.w3.org/2000/svg"><sodipodi:namedview
     id="namedview7"
     pagecolor="#ffffff"
     bordercolor="#000000"
     borderopacity="0.25"
     inkscape:showpageshadow="2"
     inkscape:pageopacity="0.0"
     inkscape:pagecheckerboard="0"
     inkscape:deskcolor="#d1d1d1"
     inkscape:document-units="mm"
     showgrid="false"
     inkscape:zoom="2.1622858"
     inkscape:cx="372.29121"
     inkscape:cy="885.63685"
     inkscape:window-width="2880"
     inkscape:window-height="1738"
     inkscape:window-x="0"
     inkscape:window-y="32"
     inkscape:window-maximized="1"
     inkscape:current-layer="layer1" /><defs
     id="defs2" /><g
     inkscape:label="Warstwa 1"
     inkscape:groupmode="layer"
     id="layer1"
     transform="translate(-44.186078,-212.71188)"><g
       id="g2724"
       inkscape:export-filename="torpeda.svg"
       inkscape:export-xdpi="96"
       inkscape:export-ydpi="96"><path
         style="fill:none;stroke:#000000;stroke-width:0.564999"
         d="m 44.46858,218.15145 -2e-6,9.35312"
         id="path490-0-35" /><path
         style="fill:none;stroke:#000000;stroke-width:0.564999"
         d="m 63.389688,214.736 v 16.251"
         id="path492-9-6" /><path
         style="fill:none;stroke:#000000;stroke-width:0.564999"
         d="m 130.34391,215.01795 v 15.62012"
         id="path494-3-2" /><path
         style="fill:none;stroke:#000000;stroke-width:0.564999"
         d="m 57.522918,215.01795 c 24.273665,-1.56335 48.547332,-1.64825 72.820992,0"
         id="path356-0-91"
         sodipodi:nodetypes="cc" /><path
         style="fill:none;stroke:#000000;stroke-width:0.564999"
         d="m 57.522918,215.01795 c -4.543339,0.28192 -10.879878,-0.008 -13.054336,3.1335"
         id="path454-6-27"
         sodipodi:nodetypes="cc" /><path
         style="fill:none;stroke:#000000;stroke-width:0.564999"
         d="m 130.34391,215.01795 c 10.48539,0.59194 26.18449,5.47095 35.40051,7.81006"
         id="path456-2-0"
         sodipodi:nodetypes="cc" /><path
         style="fill:none;stroke:#000000;stroke-width:0.564999"
         d="m 144.37149,217.27866 v -4.28428 h 13.16309 v 7.63784"
         id="path496-6-9" /><path
         style="fill:none;stroke:#000000;stroke-width:0.564999"
         d="m 57.522918,230.63807 c 24.273665,1.56335 48.547332,1.64826 72.820992,0"
         id="path356-5-8-3"
         sodipodi:nodetypes="cc" /><path
         style="fill:none;stroke:#000000;stroke-width:0.564999"
         d="m 57.522918,230.63807 c -4.543339,-0.28192 -10.879878,0.008 -13.054336,-3.1335"
         id="path454-62-7-6"
         sodipodi:nodetypes="cc" /><path
         style="fill:none;stroke:#000000;stroke-width:0.564999"
         d="m 130.34391,230.63807 c 10.48539,-0.59194 26.18449,-5.47095 35.40051,-7.81006"
         id="path456-9-9-0"
         sodipodi:nodetypes="cc" /><path
         style="fill:none;stroke:#000000;stroke-width:0.564999"
         d="m 144.37149,228.37736 v 4.28428 h 13.16309 v -7.63784"
         id="path496-1-2-62" /><path
         style="fill:none;stroke:#000000;stroke-width:0.564999"
         d="m 144.4402,222.82801 h 13.20623"
         id="path520-0-6" /><path
         style="fill:#b5101f;fill-opacity:1;stroke:#000000;stroke-width:0.150057"
         d="m 59.842001,230.46501 c -1.082156,-0.07 -3.042687,-0.17719 -4.356735,-0.23816 -1.314045,-0.061 -2.800255,-0.14338 -3.302685,-0.18312 -3.554394,-0.28114 -5.649592,-0.92964 -6.899106,-2.13536 l -0.514368,-0.49635 v -4.57192 -4.57193 l 0.252206,-0.29464 c 0.525288,-0.61369 1.604245,-1.24192 2.769399,-1.61251 1.662067,-0.52863 3.496799,-0.75076 7.694554,-0.93156 0.966213,-0.0416 3.021608,-0.15283 4.567545,-0.24715 1.545939,-0.0943 2.850324,-0.17157 2.898634,-0.17167 0.06974,-1.4e-4 0.08784,1.60656 0.08784,7.79978 v 7.79996 l -0.61486,-0.009 c -0.338175,-0.005 -1.500265,-0.0663 -2.582421,-0.13634 z"
         id="path933-1" /><path
         style="fill:#b0613a;fill-opacity:1;stroke:#000000;stroke-width:0.150057"
         d="m 85.139168,231.44802 c -6.245678,-0.10481 -15.435704,-0.42434 -20.062058,-0.69754 -0.637701,-0.0377 -1.19898,-0.0688 -1.24729,-0.0692 -0.06974,-5.3e-4 -0.08784,-1.61977 -0.08784,-7.86009 v -7.85941 l 1.001347,-0.0477 c 4.420073,-0.21081 5.616826,-0.26412 8.028337,-0.35764 7.669678,-0.29742 13.074803,-0.39592 21.678264,-0.39503 8.388722,8e-4 12.001992,0.0616 19.429632,0.32637 4.78225,0.1705 10.3608,0.44677 14.12425,0.69949 0.85027,0.0571 1.64871,0.10391 1.77431,0.10404 l 0.22838,2.3e-4 v 7.51382 7.51383 l -0.36891,0.0403 c -0.70917,0.0774 -6.25479,0.39667 -9.82022,0.56536 -11.01897,0.52133 -23.536274,0.71019 -34.678203,0.52321 z"
         id="path1073-8" /><path
         style="fill:#9ca4a8;fill-opacity:1;stroke:#000000;stroke-width:0.150057"
         d="m 130.63893,222.82984 v -7.46803 h 0.17728 c 0.0975,0 0.80108,0.0638 1.56351,0.14184 5.46927,0.55962 11.98864,1.93783 22.57863,4.77318 6.4482,1.72643 9.16457,2.46233 9.29468,2.51807 0.0916,0.0392 -0.3585,0.18574 -1.51081,0.49173 -0.9027,0.23971 -3.45952,0.92767 -5.6818,1.5288 -13.02721,3.52388 -20.23564,5.03071 -26.12284,5.46064 l -0.29865,0.0218 z m 27.05392,0.0157 v -0.31621 h -6.64051 -6.64051 v 0.31621 0.31622 h 6.64051 6.64051 z"
         id="path1144-7" /><path
         style="fill:#9ca4a8;fill-opacity:1;stroke:#000000;stroke-width:0.150057"
         d="m 154.81178,219.5735 c -2.02849,-0.55326 -8.12717,-2.09954 -9.57427,-2.42749 l -0.5446,-0.12342 v -1.8493 -1.84931 h 6.25402 6.25403 v 3.44323 c 0,1.89377 -0.0237,3.44006 -0.0527,3.4362 -0.029,-0.004 -1.0804,-0.28732 -2.33647,-0.62991 z"
         id="path1491-9" /><path
         style="fill:#9ca4a8;fill-opacity:1;stroke:#000000;stroke-width:0.150057"
         d="m 144.70933,230.4939 0.0187,-1.87323 0.59729,-0.13505 c 1.46338,-0.33089 6.46011,-1.59073 8.98576,-2.26561 1.52178,-0.40663 2.79454,-0.73933 2.82836,-0.73933 0.0343,0 0.0615,1.52217 0.0615,3.44322 v 3.44323 h -6.25517 -6.25517 z"
         id="path1493-2" /></g></g></svg>
