<?xml version="1.0" encoding="UTF-8" standalone="no"?>
<!-- Created with Inkscape (http://www.inkscape.org/) -->

<svg
   width="121.62785mm"
   height="20.232269mm"
   viewBox="0 0 121.62785 20.232269"
   version="1.1"
   id="svg5"
   xml:space="preserve"
   xmlns="http://www.w3.org/2000/svg"
   xmlns:svg="http://www.w3.org/2000/svg"><defs
     id="defs2" /><g
     id="layer1"
     transform="translate(-43.781488,-245.44323)"><g
       id="g2705"><path
         style="fill:none;stroke:#000000;stroke-width:0.564999"
         d="m 44.06399,250.8828 -2e-6,9.35312"
         id="path490-0-3-2" /><path
         style="fill:none;stroke:#000000;stroke-width:0.564999"
         d="m 62.985098,247.46735 v 16.251"
         id="path492-9-7-3" /><path
         style="fill:none;stroke:#000000;stroke-width:0.564999"
         d="m 129.93932,247.7493 v 15.62012"
         id="path494-3-5-7" /><path
         style="fill:none;stroke:#000000;stroke-width:0.564999"
         d="m 57.118328,247.7493 c 24.273665,-1.56335 48.547332,-1.64825 72.820992,0"
         id="path356-0-9-5" /><path
         style="fill:none;stroke:#000000;stroke-width:0.564999"
         d="m 57.118328,247.7493 c -4.543339,0.28192 -10.879878,-0.008 -13.054336,3.1335"
         id="path454-6-2-9" /><path
         style="fill:none;stroke:#000000;stroke-width:0.564999"
         d="m 129.93932,247.7493 c 10.48539,0.59194 26.18449,5.47095 35.40051,7.81006"
         id="path456-2-2-2" /><path
         style="fill:none;stroke:#000000;stroke-width:0.564999"
         d="m 143.9669,250.01001 v -4.28428 h 13.16309 v 7.63784"
         id="path496-6-8-2" /><path
         style="fill:none;stroke:#000000;stroke-width:0.564999"
         d="m 57.118328,263.36942 c 24.273665,1.56335 48.547332,1.64826 72.820992,0"
         id="path356-5-8-9-8" /><path
         style="fill:none;stroke:#000000;stroke-width:0.564999"
         d="m 57.118328,263.36942 c -4.543339,-0.28192 -10.879878,0.008 -13.054336,-3.1335"
         id="path454-62-7-7-9" /><path
         style="fill:none;stroke:#000000;stroke-width:0.564999"
         d="m 129.93932,263.36942 c 10.48539,-0.59194 26.18449,-5.47095 35.40051,-7.81006"
         id="path456-9-9-3-7" /><path
         style="fill:none;stroke:#000000;stroke-width:0.564999"
         d="m 143.9669,261.10871 v 4.28428 h 13.16309 v -7.63784"
         id="path496-1-2-6-3" /><path
         style="fill:none;stroke:#000000;stroke-width:0.564999"
         d="m 144.03561,255.55936 h 13.20623"
         id="path520-0-1-6" /><path
         style="fill:#5a070e;fill-opacity:1;stroke:#000000;stroke-width:0.150057"
         d="m 59.437411,263.19635 c -1.082156,-0.07 -3.042687,-0.17718 -4.356735,-0.23815 -1.314045,-0.061 -2.800254,-0.14338 -3.302685,-0.18312 -3.554394,-0.28114 -5.649592,-0.92964 -6.899106,-2.13537 l -0.514368,-0.49634 v -4.57192 -4.57193 l 0.252206,-0.29465 c 0.525288,-0.61368 1.604246,-1.24191 2.769399,-1.6125 1.662068,-0.52864 3.496799,-0.75076 7.694554,-0.93156 0.966214,-0.0416 3.021608,-0.15283 4.567545,-0.24715 1.545939,-0.0943 2.850324,-0.17158 2.898634,-0.17167 0.06974,-1.4e-4 0.08784,1.60656 0.08784,7.79978 v 7.79996 l -0.61486,-0.009 c -0.338175,-0.005 -1.500264,-0.0663 -2.582421,-0.13634 z"
         id="path933-2-1" /><path
         style="fill:#57301d;fill-opacity:1;stroke:#000000;stroke-width:0.150057"
         d="m 84.734578,264.17937 c -6.245677,-0.10481 -15.435704,-0.42434 -20.062058,-0.69754 -0.637701,-0.0377 -1.19898,-0.0688 -1.24729,-0.0692 -0.06974,-5.3e-4 -0.08784,-1.61977 -0.08784,-7.86009 v -7.85941 l 1.001347,-0.0477 c 4.420074,-0.21081 5.616826,-0.26412 8.028337,-0.35764 7.669678,-0.29742 13.074803,-0.39592 21.678264,-0.39503 8.388722,7.9e-4 12.001982,0.0616 19.429622,0.32637 4.78225,0.1705 10.36081,0.44677 14.12426,0.69949 0.85026,0.0571 1.64871,0.10391 1.77431,0.10404 l 0.22838,2.3e-4 v 7.51382 7.51383 l -0.36892,0.0403 c -0.70916,0.0774 -6.25479,0.39666 -9.82022,0.56535 -11.01896,0.52134 -23.536264,0.71019 -34.678193,0.52322 z"
         id="path1073-9-2" /><path
         style="fill:#6c7275;fill-opacity:1;stroke:#000000;stroke-width:0.150057"
         d="m 130.23434,255.56119 v -7.46803 h 0.17728 c 0.0975,0 0.80108,0.0638 1.5635,0.14184 5.46928,0.55962 11.98864,1.93783 22.57864,4.77318 6.44819,1.72643 9.16456,2.46233 9.29467,2.51807 0.0916,0.0392 -0.3585,0.18574 -1.5108,0.49173 -0.90271,0.23971 -3.45952,0.92767 -5.68181,1.5288 -13.02721,3.52388 -20.23563,5.03071 -26.12283,5.46064 l -0.29865,0.0218 z m 27.05391,0.0157 v -0.31621 h -6.6405 -6.64051 v 0.31621 0.31622 h 6.64051 6.6405 z"
         id="path1144-3-9" /><path
         style="fill:#6c7275;fill-opacity:1;stroke:#000000;stroke-width:0.150057"
         d="m 154.40719,252.30485 c -2.02849,-0.55326 -8.12718,-2.09954 -9.57428,-2.42749 l -0.54459,-0.12342 v -1.8493 -1.84931 h 6.25402 6.25402 v 3.44322 c 0,1.89378 -0.0237,3.44007 -0.0527,3.43621 -0.029,-0.004 -1.0804,-0.28732 -2.33647,-0.62991 z"
         id="path1491-1-3" /><path
         style="fill:#6c7275;fill-opacity:1;stroke:#000000;stroke-width:0.150057"
         d="m 144.30474,263.22525 0.0187,-1.87323 0.59729,-0.13505 c 1.46338,-0.33089 6.46011,-1.59073 8.98576,-2.26561 1.52178,-0.40663 2.79454,-0.73934 2.82836,-0.73934 0.0343,0 0.0615,1.52218 0.0615,3.44323 v 3.44323 h -6.25516 -6.25517 z"
         id="path1493-9-1" /></g></g></svg>
